<?xml version="1.0" encoding="UTF-8"?>
<svg version="1.1" xmlns="http://www.w3.org/2000/svg" width="803" height="398">
<path d="M0 0 C0.90363281 0.71542969 1.80726563 1.43085937 2.73828125 2.16796875 C9.78580475 7.80000663 16.43843593 13.81627881 23 20 C23.7321875 20.68964844 24.464375 21.37929687 25.21875 22.08984375 C30.6282467 27.33834353 35.3462603 33.07923186 40 39 C40.7321875 39.92683594 41.464375 40.85367188 42.21875 41.80859375 C60.82992532 65.95724905 75.91930957 94.87505746 76.23828125 126.046875 C76.246353 126.81694885 76.25442474 127.58702271 76.26274109 128.38043213 C76.27652553 130.01092319 76.28727272 131.64144243 76.29516602 133.27197266 C76.30657234 134.90259558 76.32683911 136.53318464 76.35668945 138.16357422 C77.08451322 178.05156934 57.59334879 209.78995697 31.0390625 238.08984375 C26.58727388 242.67791162 21.81089123 246.7393656 16.8203125 250.73046875 C15.04116932 252.16216153 13.28251596 253.62006208 11.5546875 255.11328125 C-12.66603809 275.87932655 -43.30457545 291.55171801 -74 300 C-74.99507568 300.27602051 -74.99507568 300.27602051 -76.01025391 300.55761719 C-80.64616913 301.82891626 -85.28446941 303.05929951 -90 304 C-91.33913452 304.27034058 -91.33913452 304.27034058 -92.70532227 304.54614258 C-103.82406345 306.45998929 -114.97783008 306.33722062 -126.22924805 306.31567383 C-129.66292357 306.31252256 -133.09572778 306.33601081 -136.52929688 306.36132812 C-149.64362849 306.39983341 -162.14800709 305.65069755 -175 303 C-176.16120361 302.76498779 -177.32240723 302.52997559 -178.51879883 302.2878418 C-181.54771092 301.63637513 -184.55488233 300.93066207 -187.5625 300.1875 C-189.14744263 299.79957275 -189.14744263 299.79957275 -190.7644043 299.40380859 C-200.02909041 297.0843004 -209.04888851 294.32380159 -218 291 C-218.79180664 290.70899414 -219.58361328 290.41798828 -220.39941406 290.11816406 C-232.35743528 285.67446369 -243.54592277 280.29804449 -254.74365234 274.20947266 C-258.31367548 272.29582901 -261.93391931 270.48699757 -265.5625 268.6875 C-266.16868164 268.38650391 -266.77486328 268.08550781 -267.39941406 267.77539062 C-268.609993 267.17504903 -269.82135917 266.57629265 -271.03344727 265.97900391 C-272.43207579 265.28272825 -273.82527093 264.57549177 -275.21459961 263.86083984 C-310.46009755 245.84718821 -349.30886271 234.64979057 -388 227 C-388.75055664 226.85079102 -389.50111328 226.70158203 -390.27441406 226.54785156 C-395.49550672 225.53508827 -400.73145287 224.72303668 -406 224 C-406.97453125 223.86319824 -407.9490625 223.72639648 -408.953125 223.58544922 C-438.37128756 219.60771901 -468.43751915 219.23113852 -497.80566406 223.71875 C-500.550032 224.07049809 -503.23747047 224.11013407 -506 224 C-506 221.03 -506 218.06 -506 215 C-500.14665191 212.15856889 -494.4621734 210.93264024 -488.0625 209.875 C-487.03398926 209.70323242 -486.00547852 209.53146484 -484.94580078 209.35449219 C-476.61377395 208.01208837 -468.4467257 207.14592239 -460 207 C-458.98228516 206.97953613 -457.96457031 206.95907227 -456.91601562 206.93798828 C-423.78169776 206.3675198 -391.93234286 209.88692159 -359.66992188 217.38085938 C-357.96184261 217.77695383 -356.25231338 218.16687843 -354.54101562 218.54882812 C-318.03704869 226.70428982 -282.0863429 241.12126173 -248.875 258.125 C-197.06029929 284.394093 -133.42652758 290.47540016 -77 278 C-76.16114258 277.82098145 -75.32228516 277.64196289 -74.45800781 277.45751953 C-62.83531259 274.92564208 -53.22612409 271.01818792 -43 265 C-41.23218154 264.05682724 -39.46153154 263.11893386 -37.6875 262.1875 C-25.64179628 255.56326055 -14.08728909 248.47238243 -3.40625 239.80078125 C-1 238 -1 238 1 238 C1 237.34 1 236.68 1 236 C5.47058824 232 5.47058824 232 8 232 C8 231.34 8 230.68 8 230 C9.43359375 228.58984375 9.43359375 228.58984375 11.4375 226.9375 C37.27753911 204.82133295 54.16744593 174.22458074 56.87426758 140.17114258 C57.73480812 125.31136186 55.67527825 111.02006054 50.71191406 97.02392578 C49.97517318 94.92941894 49.27818619 92.82444068 48.5859375 90.71484375 C45.46515213 81.35143474 41.66981041 72.7134417 37 64 C36.4946875 63.03449219 35.989375 62.06898438 35.46875 61.07421875 C32.39505102 55.2946837 29.01758165 49.77946176 25.41796875 44.3125 C24 42 24 42 23 39 C22.34 39 21.68 39 21 39 C19.67598078 37.46086553 18.41730743 35.86540568 17.1875 34.25 C9.14240864 24.21303714 -0.28692274 16.09004628 -11 9 C-12.1139894 8.18325666 -13.22720748 7.36546073 -14.33984375 6.546875 C-17.78491602 4.0794459 -21.38805402 2.05623201 -25.1875 0.1875 C-25.86820557 -0.14870361 -26.54891113 -0.48490723 -27.25024414 -0.83129883 C-47.72933637 -10.74736968 -68.66254532 -16.99490039 -91 -21 C-91.92264648 -21.17080078 -92.84529297 -21.34160156 -93.79589844 -21.51757812 C-148.85308115 -31.29663534 -208.28053398 -23.39245741 -262 -10 C-262.33 -10.66 -262.66 -11.32 -263 -12 C-262.34 -12 -261.68 -12 -261 -12 C-261 -12.66 -261 -13.32 -261 -14 C-256.20470823 -15.62363631 -251.40725351 -17.2406741 -246.60791016 -18.85229492 C-244.98429168 -19.39845016 -243.3612202 -19.9462349 -241.73876953 -20.49584961 C-217.4041456 -28.73578589 -192.53680967 -35.75983463 -167 -39 C-166.1857959 -39.10441406 -165.3715918 -39.20882812 -164.53271484 -39.31640625 C-108.44089281 -46.18257544 -44.80148979 -37.07475782 0 0 Z " fill="#030000" transform="translate(727,92)"/>
<path d="M0 0 C4.98729034 4.03733028 8.15287243 8.35346929 8.9609375 14.80859375 C9.02639332 19.42322888 8.91297243 22.50639257 6.9375 26.75 C4.26720663 29.49246346 3.36536942 29.80846662 -0.375 30.125 C-3.6015625 29.3828125 -3.6015625 29.3828125 -7 28.25 C-8.12664062 27.88132813 -9.25328125 27.51265625 -10.4140625 27.1328125 C-11.39117187 26.80023438 -12.36828125 26.46765625 -13.375 26.125 C-24.26959911 22.49346696 -35.15199846 26.10256798 -45.0390625 30.85546875 C-58.47525147 37.57786254 -69.56316536 46.82160572 -80.375 57.125 C-81.21417969 57.89972656 -82.05335938 58.67445313 -82.91796875 59.47265625 C-89.14081916 65.38280061 -95.54270371 72.00158912 -96 81 C-95.77813098 84.13944658 -95.45570206 85.01739725 -93.5 87.625 C-90.46440669 89.76777175 -88.8857056 90.24427345 -85.22338867 90.17504883 C-84.36456589 90.16206253 -83.5057431 90.14907623 -82.62089539 90.13569641 C-81.6876796 90.11798691 -80.75446381 90.1002774 -79.79296875 90.08203125 C-77.80795307 90.05961018 -75.82292625 90.03815844 -73.83789062 90.01757812 C-70.71559259 89.9807534 -67.59386889 89.93810215 -64.47192383 89.87817383 C-46.82505649 89.5553223 -32.67751942 90.53649963 -19.0625 103 C-12.81948318 109.65806503 -10.4390492 118.41967765 -10.0625 127.375 C-10.9484953 154.37454084 -31.63565925 179.51322812 -50.22265625 197.37890625 C-65.91919092 211.90433085 -85.9996443 220.96650291 -107.6015625 220.4765625 C-122.21399018 219.11515619 -134.97566246 213.43866291 -144.375 202.125 C-149.28589683 195.6786206 -148.80493109 188.95929991 -148.375 181.125 C-145.49791027 179.64317606 -144.02883458 178.9550584 -140.83886719 179.78417969 C-139.51870605 180.40921387 -139.51870605 180.40921387 -138.171875 181.046875 C-137.19089844 181.49546875 -136.20992188 181.9440625 -135.19921875 182.40625 C-133.67748047 183.13328125 -133.67748047 183.13328125 -132.125 183.875 C-116.46357145 191.23081934 -102.26299342 193.77980323 -85.375 188.125 C-69.89898875 182.12824085 -59.14333906 172.46090637 -49.375 159.125 C-48.78203125 158.33609375 -48.1890625 157.5471875 -47.578125 156.734375 C-37.59260127 143.32841594 -37.59260127 143.32841594 -34.83203125 127.37109375 C-35.262944 124.91702364 -35.262944 124.91702364 -37.3125 122.625 C-44.70974467 119.00185975 -51.13232009 117.69600746 -59.34375 117.90234375 C-60.26410034 117.91133194 -61.18445068 117.92032013 -62.13269043 117.92958069 C-65.04719661 117.95934671 -67.96083854 118.00908901 -70.875 118.0625 C-73.78910076 118.11059305 -76.70297216 118.15392391 -79.61730957 118.18470764 C-81.42173386 118.20420549 -83.22609018 118.23352806 -85.03015137 118.27464294 C-92.94880031 118.36833461 -100.1230643 117.39068745 -106.9375 113.125 C-107.78441406 112.609375 -108.63132812 112.09375 -109.50390625 111.5625 C-110.12136719 111.088125 -110.73882812 110.61375 -111.375 110.125 C-111.375 109.465 -111.375 108.805 -111.375 108.125 C-112.365 107.795 -113.355 107.465 -114.375 107.125 C-120.97549704 99.0947217 -122.13370538 90.2120502 -121.375 80.125 C-119.41474228 65.4715883 -110.84430678 53.97707061 -101.375 43.125 C-100.46814453 42.01898438 -100.46814453 42.01898438 -99.54296875 40.890625 C-98.20287434 39.26033982 -96.79631648 37.6849815 -95.375 36.125 C-94.715 36.125 -94.055 36.125 -93.375 36.125 C-93.045 35.135 -92.715 34.145 -92.375 33.125 C-90.64273725 31.51687335 -88.8404991 29.98302684 -87 28.5 C-86.02289063 27.70335937 -85.04578125 26.90671875 -84.0390625 26.0859375 C-81.375 24.125 -81.375 24.125 -78.375 23.125 C-78.375 22.465 -78.375 21.805 -78.375 21.125 C-76.42548641 19.61842072 -74.4851568 18.23643944 -72.4375 16.875 C-71.84138916 16.47240967 -71.24527832 16.06981934 -70.63110352 15.6550293 C-69.43067612 14.84530323 -68.22846065 14.03822127 -67.02441406 13.23388672 C-65.64846918 12.30885095 -64.28714655 11.36211235 -62.9296875 10.41015625 C-45.20980651 -1.91529602 -20.38712853 -11.32618252 0 0 Z " fill="#EF403A" transform="translate(408.375,73.875)"/>
<path d="M0 0 C0.33 0 0.66 0 1 0 C0.4344661 4.558546 -0.43555088 8.74728924 -1.8125 13.125 C-2.5580768 15.74680852 -3.29009399 18.3686314 -4 21 C-4.28593018 22.04607422 -4.28593018 22.04607422 -4.57763672 23.11328125 C-10.79571818 46.90787675 -11.15635487 75.6873571 -3 99 C-2.62246582 100.12825195 -2.62246582 100.12825195 -2.23730469 101.27929688 C1.1181673 111.07980752 5.72868601 119.1589566 12.05859375 127.33984375 C14 130 14 130 14 132 C14.99 132.33 15.98 132.66 17 133 C18.4375 134.56640625 18.4375 134.56640625 20 136.5625 C30.26798224 148.59562803 44.98147783 155.08985222 60 159 C60.64163086 159.16790039 61.28326172 159.33580078 61.94433594 159.50878906 C101.89599748 169.23757328 149.59969502 160.32096014 186.17114258 142.72119141 C188 142 188 142 191 142 C191 147.94 191 153.88 191 160 C161.70825491 169.76391503 131.76768718 175.18864018 100.88964844 175.18530273 C98.63457375 175.18749071 96.37998899 175.2057361 94.125 175.22460938 C64.28084219 175.34162693 39.29521814 167.24508314 17 147 C14.46624989 144.46624989 12.20253518 141.82430349 10 139 C9.37867187 138.2265625 8.75734375 137.453125 8.1171875 136.65625 C-8.08830763 115.55733086 -14.44262342 92.68880936 -14.3125 66.375 C-14.31001251 65.57397858 -14.30752502 64.77295715 -14.30496216 63.94766235 C-14.24942144 52.40139619 -14.03725809 41.20811615 -11 30 C-10.74766602 29.06317383 -10.49533203 28.12634766 -10.23535156 27.16113281 C-4.88426761 7.7611549 -4.88426761 7.7611549 0 0 Z " fill="#020000" transform="translate(14,165)"/>
<path d="M0 0 C2.4294516 3.6441774 2.16179575 5.71241272 2 10 C2.62648438 9.57847656 3.25296875 9.15695313 3.8984375 8.72265625 C4.71570313 8.17480469 5.53296875 7.62695312 6.375 7.0625 C7.18710937 6.51722656 7.99921875 5.97195312 8.8359375 5.41015625 C14.10917597 1.97398461 19.85655701 2.13789864 26 3 C28.40911125 4.84860215 28.85632569 6.11071752 30 9 C30.67546875 8.57847656 31.3509375 8.15695313 32.046875 7.72265625 C32.93890625 7.17480469 33.8309375 6.62695312 34.75 6.0625 C35.63171875 5.51722656 36.5134375 4.97195312 37.421875 4.41015625 C42.40071841 1.68687978 47.40819141 1.4208484 53 2 C55.96912882 3.38980498 57.69657028 4.69657028 60 7 C63.03564856 19.06915115 58.85275007 31.05877124 55.125 42.4375 C54.6156189 44.00201904 54.6156189 44.00201904 54.09594727 45.59814453 C52.30008375 50.89126094 50.65558942 55.71338622 47 60 C43.375 60.5 43.375 60.5 40 60 C39.34 59.34 38.68 58.68 38 58 C38 51.26070204 40.13912336 45.79504676 42.69189453 39.66259766 C46.39344047 30.74086547 48.56993162 22.73105466 48 13 C39.53660811 14.02586568 33.16565571 19.55705962 28 26 C23.78467219 32.85483214 22.81603413 41.23360006 21.48144531 49.04394531 C20.08276006 56.87357478 20.08276006 56.87357478 17 60 C14.6568787 59.74438677 12.32156597 59.40729228 10 59 C7.06136891 53.12273781 9.12350809 45.54312454 11.03271484 39.61621094 C11.31066895 38.79411133 11.58862305 37.97201172 11.875 37.125 C14.23450364 29.76202941 16.09243317 22.69867039 17 15 C10.84576594 15.36925404 8.27296499 16.82877227 4 21 C3.67 21.66 3.34 22.32 3 23 C2.34 23 1.68 23 1 23 C0.67 23.99 0.34 24.98 0 26 C-0.66 26 -1.32 26 -2 26 C-3.92587369 30.47877602 -5.25110064 35.06476312 -6.5625 39.75 C-6.78357422 40.51054687 -7.00464844 41.27109375 -7.23242188 42.0546875 C-8.547376 46.74243937 -9.36740138 51.25029112 -9.75097656 56.10620117 C-10.11441024 58.87007869 -10.81283716 60.26535361 -13 62 C-16 62.4375 -16 62.4375 -19 62 C-20.68969727 60.72875977 -20.68969727 60.72875977 -22 59 C-23.07484169 50.2815863 -18.8082967 39.92540248 -16.5625 31.5625 C-15.74597347 28.50269115 -14.93512197 25.44144743 -14.12890625 22.37890625 C-13.93503326 21.6482193 -13.74116028 20.91753235 -13.54141235 20.16470337 C-12.23947685 15.17353706 -11.24819878 10.20040125 -10.57006836 5.08178711 C-9.03330038 -0.53021311 -5.25080152 -0.57281471 0 0 Z " fill="#020000" transform="translate(494,189)"/>
<path d="M0 0 C7.29449604 3.01169931 12.02137607 10.31622616 15 17.3671875 C19.31627292 29.69346689 18.63687254 39.83823743 14 52 C11.46349056 56.98555303 8.34645484 60.17711349 3 62 C-3.34516802 63.10755788 -7.88915481 62.14875795 -13.2109375 58.58203125 C-17.26658479 54.99570559 -19.79990137 50.81202398 -22.1875 46 C-22.69667969 44.989375 -23.20585937 43.97875 -23.73046875 42.9375 C-27.51857685 34.17240065 -27.70795781 21.29403355 -24.3125 12.3125 C-18.97359182 1.19924077 -12.11279897 -1.49225381 0 0 Z " fill="#F0403A" transform="translate(400,0)"/>
<path d="M0 0 C0.7115625 -0.02900391 1.423125 -0.05800781 2.15625 -0.08789062 C5.48493465 -0.12825714 7.67991105 0.12269116 10.5625 1.83203125 C12.6845461 5.49371406 11.88644709 8.37537575 11 12.3125 C10.79262207 13.25512695 10.58524414 14.19775391 10.37158203 15.16894531 C9.62762952 18.43171575 8.84822876 21.6845501 8.0625 24.9375 C6.0837426 33.24130748 4.31819319 41.36268186 3.51953125 49.87109375 C2.92339798 52.67247191 2.3384653 53.68266055 0 55.3125 C-3.625 55.5625 -3.625 55.5625 -7 55.3125 C-8.58272601 53.72977399 -8.34735747 51.93215997 -8.5625 49.75 C-8.64628906 48.92371094 -8.73007813 48.09742188 -8.81640625 47.24609375 C-8.87699219 46.60800781 -8.93757813 45.96992188 -9 45.3125 C-9.62648438 45.80621094 -10.25296875 46.29992187 -10.8984375 46.80859375 C-12.12433594 47.76958984 -12.12433594 47.76958984 -13.375 48.75 C-14.18710938 49.38808594 -14.99921875 50.02617187 -15.8359375 50.68359375 C-19.67191616 53.57096397 -22.18320363 53.79417964 -27 53.3125 C-31.21978239 50.8443254 -33.16965139 48.90727183 -34.5 44.1875 C-36.33462651 32.46520218 -30.88134959 21.18733673 -24.23046875 11.8203125 C-17.23047706 3.44560461 -10.8753101 0.14776237 0 0 Z M-14.078125 16.14453125 C-20.06100902 22.73870995 -24.98371277 31.14279058 -25 40.3125 C-23.63257615 42.11901259 -23.63257615 42.11901259 -22 43.3125 C-13.15850425 39.07594995 -7.40104651 31.945322 -3 23.3125 C-2.6390625 22.69503906 -2.278125 22.07757813 -1.90625 21.44140625 C-0.79931641 18.84106656 -0.80093988 16.87678454 -0.875 14.0625 C-0.90207031 12.72445312 -0.90207031 12.72445312 -0.9296875 11.359375 C-0.95289062 10.68390625 -0.97609375 10.0084375 -1 9.3125 C-5.40619228 9.3125 -10.92914169 13.36845386 -14.078125 16.14453125 Z " fill="#030000" transform="translate(124,193.6875)"/>
<path d="M0 0 C0.7115625 -0.020625 1.423125 -0.04125 2.15625 -0.0625 C5.21689013 -0.0853406 7.52286574 -0.01109312 10.23657227 1.47387695 C12 3.25 12 3.25 12.29272461 5.41967773 C11.26203005 13.51864998 9.50359836 21.3875794 7.5625 29.3125 C6.93585535 31.90685386 6.31362369 34.50223341 5.69140625 37.09765625 C5.39766113 38.31727051 5.10391602 39.53688477 4.80126953 40.79345703 C3.90131618 44.67570551 3.12148701 48.56925701 2.40991211 52.48999023 C2 54.25 2 54.25 1 55.25 C-1.67058851 55.39115161 -4.32432238 55.29247107 -7 55.25 C-7.7805581 51.83505832 -8.04700636 48.74609808 -8 45.25 C-8.69867188 45.74371094 -9.39734375 46.23742187 -10.1171875 46.74609375 C-11.02726562 47.38675781 -11.93734375 48.02742188 -12.875 48.6875 C-13.77992188 49.32558594 -14.68484375 49.96367187 -15.6171875 50.62109375 C-19.6413139 53.37201294 -22.07303714 53.74269629 -27 53.25 C-30.47998516 51.24707521 -32.7068445 49.12946651 -34 45.25 C-34.65038383 37.73306383 -33.70340894 31.2671093 -31 24.25 C-30.74476563 23.57324219 -30.48953125 22.89648438 -30.2265625 22.19921875 C-26.56713539 13.82282367 -19.35223127 6.5504458 -12 1.25 C-8.1408924 -0.15084702 -4.05577468 0.02938967 0 0 Z M-2 9.25 C-10.25445262 12.01154448 -16.16769995 16.99988284 -20.28125 24.625 C-23.08317355 30.70917685 -24.12972679 35.50420686 -24 42.25 C-23.01 42.58 -22.02 42.91 -21 43.25 C-11.7149634 38.51483721 -4.77701217 29.22853062 -0.83203125 19.84765625 C0.2679125 16.41355955 0.39625389 13.81628498 0 10.25 C-0.66 9.92 -1.32 9.59 -2 9.25 Z " fill="#030000" transform="translate(223,193.75)"/>
<path d="M0 0 C3.15576082 2.07993327 4.34779653 3.30699132 5.75 6.8125 C6.28210221 12.39957317 6.04210359 16.08010109 2.75 20.8125 C-4.88829936 28.30102878 -15.0387263 30.80372485 -25.25 32.8125 C-25.7103464 37.09408753 -25.7103464 37.09408753 -23.6875 40.6875 C-20.17567301 42.30834322 -18.1165772 42.31141319 -14.25 41.8125 C-9.35592849 39.82969289 -4.865382 37.19339968 -0.375 34.4375 C2.75 32.8125 2.75 32.8125 5.125 32.875 C6.75 33.8125 6.75 33.8125 7.75 36.8125 C5.38021824 43.92184528 -0.25656229 47.14308281 -6.5 50.625 C-14.44974081 53.14241792 -22.37756103 53.71287225 -30.25 50.8125 C-33.4694793 48.85281695 -34.91032883 47.50801716 -36.5625 44.125 C-37.30745827 40.53565561 -37.36322466 37.31663569 -37.22265625 33.66796875 C-37.0347803 31.79551616 -37.0347803 31.79551616 -38.25 30.8125 C-38.7824805 26.99638977 -38.62804127 25.32468495 -36.3125 22.1875 C-35.85617187 21.70023438 -35.39984375 21.21296875 -34.9296875 20.7109375 C-32.72441864 18.21847084 -30.87025454 15.52103145 -28.9375 12.8125 C-21.85617898 3.33152867 -12.49196682 -4.56437249 0 0 Z M-11.15234375 9.6328125 C-15.25748765 12.26451703 -18.54465325 14.64175709 -21.25 18.8125 C-21.25 19.4725 -21.25 20.1325 -21.25 20.8125 C-12.85874675 19.71594872 -12.85874675 19.71594872 -6.25 14.8125 C-5.83129447 12.14321879 -5.83129447 12.14321879 -6.25 9.8125 C-9.09359194 8.49462068 -9.09359194 8.49462068 -11.15234375 9.6328125 Z " fill="#020000" transform="translate(716.25,197.1875)"/>
<path d="M0 0 C3.06898487 2.06978049 4.28784869 3.39113014 5.6875 6.8125 C6.25812353 11.9481118 5.7873036 16.57953557 2.6875 20.8125 C-5.7939246 28.5432147 -15.16035507 30.91313347 -26.3125 31.8125 C-26.1578125 33.730625 -26.1578125 33.730625 -26 35.6875 C-25.91298828 36.76644531 -25.91298828 36.76644531 -25.82421875 37.8671875 C-25.43856964 40.20769216 -25.43856964 40.20769216 -22.3125 41.8125 C-13.54561524 42.86452617 -6.54073741 38.13094983 0.64453125 33.66796875 C3.10462783 32.63783271 4.22622783 32.91095536 6.6875 33.8125 C7.1395856 37.61001908 6.88363 39.47627714 4.9375 42.8125 C-0.77947782 48.89883313 -8.84640272 51.99559678 -17 52.875 C-24.31809272 53.10286876 -29.54661993 52.00215506 -35.3125 47.4375 C-38.27404572 43.43129946 -38.01673782 38.54199306 -38.171875 33.73828125 C-38.18342256 30.74920212 -38.18342256 30.74920212 -39.3125 27.8125 C-38.14990454 25.0222709 -37.11078965 22.59945031 -34.9375 20.45703125 C-32.83449841 18.3287532 -31.26374172 15.95999552 -29.5625 13.5 C-22.35480011 3.52517583 -12.98176677 -4.65384092 0 0 Z M-12.6875 10.375 C-16.42806959 12.6542855 -18.76593429 15.26274174 -21.3125 18.8125 C-21.3125 19.4725 -21.3125 20.1325 -21.3125 20.8125 C-16.22337016 20.15041903 -12.33929774 19.59286629 -8.1875 16.4375 C-5.92500787 13.80765635 -5.92500787 13.80765635 -6.3125 9.8125 C-9.42227123 8.39505934 -9.42227123 8.39505934 -12.6875 10.375 Z " fill="#020000" transform="translate(455.3125,197.1875)"/>
<path d="M0 0 C3.37700062 1.85403956 3.89849596 2.31672859 5.1875 5.75 C5.88056569 10.63369545 5.74664129 14.61021199 3.5625 19.0625 C-4.20217052 27.8488377 -13.28049274 30.66207479 -24.8125 31.75 C-26.12784788 32.85649557 -26.12784788 32.85649557 -26.125 35.625 C-26.10711587 38.7526542 -26.10711587 38.7526542 -24.25 40.625 C-20.88218279 42.17937717 -18.38901405 42.5518519 -14.8125 41.75 C-9.67894724 39.58492072 -4.80004851 37.00469347 -0.08984375 34.03125 C2.1875 32.75 2.1875 32.75 4.5 33.0625 C6.1875 33.75 6.1875 33.75 6.9375 35.3125 C7.25498168 38.40794643 6.37059334 40.3330725 4.73828125 42.94140625 C-0.01217796 48.48161435 -7.06383947 51.49577126 -14.16796875 52.55859375 C-20.88572187 53.04481222 -27.42730236 53.4271264 -32.9375 49.0625 C-36.82717333 45.07818741 -37.89583714 41.23016671 -37.875 35.75 C-37.85179687 35.07453125 -37.82859375 34.3990625 -37.8046875 33.703125 C-37.74734472 31.51482676 -37.74734472 31.51482676 -38.5 28.5 C-38.8125 25.75 -38.8125 25.75 -37.5 23.375 C-35.8125 21.75 -35.8125 21.75 -33.8125 21.75 C-33.565 21.04875 -33.3175 20.3475 -33.0625 19.625 C-29.13626642 10.59466276 -22.51734702 4.10242351 -13.8125 -0.25 C-9.02799111 -1.8448363 -4.70598415 -1.80772669 0 0 Z M-12.625 9.6875 C-16.76538227 12.36657088 -19.09604658 15.6945855 -21.8125 19.75 C-18.50955081 21.40147459 -15.62275965 19.78067239 -12.23828125 18.703125 C-9.28869324 17.54418865 -7.52733418 16.44473943 -5.8125 13.75 C-5.7171469 11.54649965 -5.7171469 11.54649965 -6.8125 9.75 C-9.78125 8.42708333 -9.78125 8.42708333 -12.625 9.6875 Z " fill="#020000" transform="translate(602.8125,197.25)"/>
<path d="M0 0 C1.875 1.23828125 1.875 1.23828125 3 3 C3.328125 5.2265625 3.328125 5.2265625 3.25 7.625 C3.23453125 8.42164063 3.2190625 9.21828125 3.203125 10.0390625 C3 12 3 12 2 13 C-0.4375 13.1875 -0.4375 13.1875 -3 13 C-3.66 12.34 -4.32 11.68 -5 11 C-10.25738904 11.10308606 -13.53000667 12.63519146 -17.71484375 15.55078125 C-19.44232478 17.17596306 -19.44232478 17.17596306 -19 21 C-17.55367187 21.67095703 -17.55367187 21.67095703 -16.078125 22.35546875 C-14.80177027 22.96549123 -13.52574583 23.57620513 -12.25 24.1875 C-11.61578125 24.47947266 -10.9815625 24.77144531 -10.328125 25.07226562 C-6.20360658 27.07007923 -3.46998955 28.98548534 -1 33 C-1.10059653 39.33758169 -2.45096289 44.45096289 -7.0625 49.0625 C-14.16734743 53.74867597 -22.21796083 58.47194253 -31 57 C-33.71385505 55.62307565 -34.90775605 54.35377445 -37 52 C-37.5 49.3125 -37.5 49.3125 -37 47 C-34.2026844 44.2026844 -32.27994691 44.73370302 -28.375 44.625 C-22.17046677 44.28668697 -18.25110092 43.25568257 -13 40 C-14.0559884 36.96321348 -14.89207789 36.063511 -17.71484375 34.40234375 C-18.77832031 33.91894531 -19.84179688 33.43554688 -20.9375 32.9375 C-27.80179051 29.79310447 -27.80179051 29.79310447 -30 27 C-31.24401851 23.26794448 -31.51681018 19.87607635 -31 16 C-28.41174243 10.82348487 -24.53687652 7.44376981 -20 4 C-18.96875 3.21625 -17.9375 2.4325 -16.875 1.625 C-11.84222354 -1.12119538 -5.53049471 -0.82957421 0 0 Z " fill="#020000" transform="translate(179,192)"/>
<path d="M0 0 C2.0625 1.625 2.0625 1.625 3 4 C3.3879235 7.62061933 3.39859421 10.08557799 1.9375 13.4375 C-0.98921861 15.79775694 -3.35655971 15.32530717 -7 15 C-7.99 14.67 -8.98 14.34 -10 14 C-12.09291157 14.08571661 -12.09291157 14.08571661 -14 15 C-14.72663461 16.30162374 -15.37614681 17.64610583 -16 19 C-16.83724609 20.65708984 -16.83724609 20.65708984 -17.69140625 22.34765625 C-18.31515062 23.5859141 -18.93884738 24.82419594 -19.5625 26.0625 C-19.87896484 26.68705078 -20.19542969 27.31160156 -20.52148438 27.95507812 C-22.85644833 32.60021874 -24.12998929 35.99082493 -24.0625 41.1875 C-24.04896484 42.53908203 -24.04896484 42.53908203 -24.03515625 43.91796875 C-24.02355469 44.60503906 -24.01195312 45.29210937 -24 46 C-16.81314907 46 -12.24055545 43.71241422 -6.4309082 39.70703125 C-4.99745014 38.73705144 -3.50147236 37.86095506 -2 37 C-1.01 37.33 -0.02 37.66 1 38 C1.53994717 41.08541241 1.44688122 43.22602015 -0.13671875 45.96875 C-5.33666131 52.51589317 -12.3740745 56.71308041 -20.52734375 58.578125 C-24.86567275 58.90442667 -27.50222072 58.04688388 -30.9375 55.375 C-34.64320751 51.66069456 -35.97587566 48.70192639 -36.0234375 43.375 C-35.484304 32.47882824 -32.28441197 22.88685251 -26 14 C-25.43152344 13.09314453 -25.43152344 13.09314453 -24.8515625 12.16796875 C-19.09499394 3.30130777 -10.6534752 -2.74407694 0 0 Z " fill="#030000" transform="translate(78,191)"/>
<path d="M0 0 C4.89049419 3.13349742 7.57630374 8.55714185 8.9296875 14.08203125 C10.03609581 21.25110552 9.67421247 28.01667497 6.3125 34.5625 C3.68285299 38.00315964 0.55423654 39.78390209 -3.6875 40.5625 C-8.13421416 40.5625 -10.04889956 40.06909142 -13.6875 37.5625 C-19.70531902 31.54468098 -21.83243465 25.49813421 -22.125 17.0625 C-21.97360693 10.5374585 -20.5553413 5.82457285 -16.23828125 0.9140625 C-11.61580419 -3.11459509 -5.22126277 -2.03540752 0 0 Z " fill="#F0403A" transform="translate(354.6875,32.4375)"/>
<path d="M0 0 C3.9975 1.5375 3.9975 1.5375 5.4375 3.9375 C4.11034229 16.11057881 0.96794437 28.12367218 -1.92251587 40.00463867 C-5.10721904 53.11712321 -7.87705798 66.18763246 -9.92724609 79.53198242 C-10.1020752 80.61455322 -10.2769043 81.69712402 -10.45703125 82.8125 C-10.59987549 83.75867188 -10.74271973 84.70484375 -10.88989258 85.6796875 C-11.5625 87.9375 -11.5625 87.9375 -14.5625 89.9375 C-17.625 89.75 -17.625 89.75 -20.5625 88.9375 C-23.90621873 83.92192191 -23.05520034 78.62699938 -21.99511719 72.84033203 C-21.19865939 69.37713519 -20.3314981 65.93929332 -19.4375 62.5 C-18.79221752 59.92496699 -18.14901617 57.34948204 -17.5078125 54.7734375 C-17.26297119 53.79714638 -17.26297119 53.79714638 -17.01318359 52.8011322 C-15.33739973 46.10012469 -13.80725216 39.36858777 -12.3125 32.625 C-12.06306641 31.50867188 -11.81363281 30.39234375 -11.55664062 29.2421875 C-10.4997496 24.45323957 -9.48510593 19.67140035 -8.6640625 14.8359375 C-8.53676758 14.08997314 -8.40947266 13.34400879 -8.27832031 12.57543945 C-7.96697211 10.67947166 -7.68134781 8.77932551 -7.3984375 6.87890625 C-6.23379359 2.78088353 -4.51688509 -0.11016793 0 0 Z " fill="#020000" transform="translate(672.5625,160.0625)"/>
<path d="M0 0 C5.45147993 0.60571999 5.45147993 0.60571999 7.7434082 2.25317383 C9 4 9 4 8.91479492 6.1706543 C8.70959229 6.98445557 8.50438965 7.79825684 8.29296875 8.63671875 C7.97658447 9.97355713 7.97658447 9.97355713 7.65380859 11.33740234 C7.43805176 12.21605957 7.22229492 13.0947168 7 14 C6.71501875 15.44202414 6.43969882 16.88600378 6.17578125 18.33203125 C4.01026667 29.64026744 1.35917013 40.78628953 -1.42358398 51.95776367 C-3.66352673 61.1357855 -5.38212346 70.31775771 -6.66992188 79.67675781 C-6.80462891 80.60069336 -6.93933594 81.52462891 -7.078125 82.4765625 C-7.18543945 83.28174316 -7.29275391 84.08692383 -7.40332031 84.91650391 C-8.11779234 87.41130925 -8.9192174 88.46459885 -11 90 C-14.64734979 89.77669287 -16.38372835 89.61627165 -19 87 C-20.90899202 76.0528827 -16.84113482 64.41736225 -14.25 53.875 C-13.80080803 52.01072349 -13.35288358 50.14614109 -12.90625 48.28125 C-12.24520857 45.5224143 -11.58335239 42.76381078 -10.91673279 40.00631714 C-9.47044801 34.01572893 -8.07614968 28.015735 -6.73828125 22 C-6.5766449 21.27505341 -6.41500854 20.55010681 -6.24847412 19.80319214 C-5.23450881 15.203021 -4.33177688 10.59698312 -3.58984375 5.9453125 C-2.85577395 3.52434058 -1.60149181 1.93567845 0 0 Z " fill="#020000" transform="translate(640,160)"/>
<path d="M0 0 C5.91639294 2.7770824 8.62185743 7.11622893 11 13 C13.2072204 20.86745432 11.03696902 27.00754072 7.4375 34.0625 C4.10081545 36.71473643 1.57820351 36.65152811 -2.59765625 36.40625 C-6.19262758 35.79831989 -7.66699867 34.81332513 -10 32 C-14.46089291 25.16879765 -15.0287522 17.98311709 -14 10 C-11.68153122 3.09190936 -7.44471481 -1.04226007 0 0 Z " fill="#F0413A" transform="translate(318,53)"/>
<path d="M0 0 C3.05835203 2.78179892 5.81559676 5.99638786 6.203125 10.20703125 C6.36118324 18.99243536 6.36118324 18.99243536 3 23 C-0.13871188 24.56935594 -2.53855822 24.35201103 -6 24 C-8.63016161 21.8272578 -10.47336894 20.05326212 -12 17 C-12.93762008 6.59395414 -12.93762008 6.59395414 -10.125 1.8125 C-6.47171003 -1.30354145 -4.62652019 -1.36074123 0 0 Z " fill="#EE3F39" transform="translate(298,84)"/>
<path d="M0 0 C3.5 0.625 3.5 0.625 5.875 2.625 C7.88550856 6.33670811 8.72322589 9.40024333 8.5 13.625 C6.99717203 17.68263553 6.11841259 19.21272494 2.5 21.625 C-0.81408663 21.45504684 -2.21901421 20.86695998 -4.75 18.6875 C-7.77744113 15.11944439 -7.84689606 12.44505574 -7.7734375 7.890625 C-7.15508303 2.76711655 -4.9106039 0.87689355 0 0 Z " fill="#EF413B" transform="translate(282.5,109.375)"/>
<path d="M0 0 C4.93671939 0.45922971 7.48613375 1.48613375 11 5 C18.47700348 14.46960593 22.31254822 25.88140409 21 38 C19.04953556 46.42843184 16.97477244 53.97917294 9.875 59.375 C5.37161515 61.6604437 0.92791566 61.8945825 -4 61 C-9.18603537 58.82951521 -12.81534224 55.64429256 -16 51 C-15.67 50.34 -15.34 49.68 -15 49 C-13.29115995 50.62339805 -11.62553283 52.29319053 -10 54 C-10 54.66 -10 55.32 -10 56 C-4.46208204 58.67963772 1.35269711 59.86546441 7.25 57.9375 C13.45782404 53.56380579 15.70873657 49.37969233 17 42 C17.27910439 39.03476562 17.33419366 36.10213598 17.3125 33.125 C17.30831055 32.33706055 17.30412109 31.54912109 17.29980469 30.73730469 C17.10672724 20.7671142 14.68972859 13.47135003 8.125 5.8125 C5.60890237 3.66641673 3.00106832 2.36412196 0 1 C0 0.67 0 0.34 0 0 Z " fill="#DE3832" transform="translate(397,1)"/>
<path d="M0 0 C4.98499625 4.03547315 8.20920825 8.36667455 8.92578125 14.84375 C8.96473799 24.08948326 8.96473799 24.08948326 5.625 28.125 C4.635 27.63 4.635 27.63 3.625 27.125 C4.285 26.135 4.945 25.145 5.625 24.125 C6.47190911 18.02922395 6.15166977 12.22531049 3.015625 6.84765625 C-0.46926987 2.53069378 -4.66365984 0.50857624 -10 -0.6875 C-11.45637494 -0.78555297 -12.91570606 -0.8417803 -14.375 -0.875 C-15.48746094 -0.91367188 -16.59992188 -0.95234375 -17.74609375 -0.9921875 C-24.10349258 -1.11328081 -29.3553902 -0.83791624 -35.375 1.125 C-37.8125 0.75 -37.8125 0.75 -39.375 0.125 C-39.045 -0.535 -38.715 -1.195 -38.375 -1.875 C-25.09507293 -5.61051497 -12.40874275 -6.89374597 0 0 Z " fill="#DE3D37" transform="translate(408.375,73.875)"/>
<path d="M0 0 C5.91639294 2.7770824 8.62185743 7.11622893 11 13 C13.2072204 20.86745432 11.03696902 27.00754072 7.4375 34.0625 C4.10081545 36.71473643 1.57820351 36.65152811 -2.59765625 36.40625 C-6.19262758 35.79831989 -7.66699867 34.81332513 -10 32 C-14.46089291 25.16879765 -15.0287522 17.98311709 -14 10 C-11.68153122 3.09190936 -7.44471481 -1.04226007 0 0 Z M-11 8 C-12.9663251 13.8989753 -13.090201 21.4035217 -11.28125 27.37109375 C-9.29073397 31.10331132 -6.89519171 33.42337478 -3 35 C0.7460132 35.54629359 2.44627071 35.31461891 5.75 33.4375 C9.709246 29.14831684 10.49919091 23.93514347 10.30859375 18.18359375 C9.60043331 13.17268636 8.15404358 7.99070379 4.3515625 4.4765625 C1.82106076 2.91848064 -0.74646949 2.06036441 -3.625 1.375 C-7.3999041 2.36839582 -8.81265082 4.90125532 -11 8 Z " fill="#DD3630" transform="translate(318,53)"/>
<path d="M0 0 C2 0 2 0 4 1.9375 C4.99 2.9584375 4.99 2.9584375 6 4 C8.30820508 5.15410254 9.60784276 5.1210297 12.17431641 5.11352539 C13.03505768 5.11344986 13.89579895 5.11337433 14.78262329 5.11329651 C15.71287323 5.10813522 16.64312317 5.10297394 17.6015625 5.09765625 C18.55316254 5.0962413 19.50476257 5.09482635 20.48519897 5.09336853 C23.53183097 5.08776012 26.57839013 5.07520619 29.625 5.0625 C31.68749894 5.05748608 33.74999903 5.05292299 35.8125 5.04882812 C40.87502817 5.03778796 45.93750173 5.02051767 51 5 C50.67 5.99 50.34 6.98 50 8 C44.57453867 8.21802649 39.14886716 8.41468364 33.72192383 8.59204102 C31.87796609 8.6552578 30.03419472 8.72419101 28.19067383 8.79907227 C25.53235458 8.90603677 22.87403136 8.99205455 20.21484375 9.07421875 C18.98942116 9.1302552 18.98942116 9.1302552 17.73924255 9.18742371 C12.3525748 9.32720127 8.76554615 8.57054338 4 6 C0 1.69230769 0 1.69230769 0 0 Z " fill="#DF453C" transform="translate(311,159)"/>
<path d="M0 0 C7.3654457 0.68615506 11.13563148 4.73771151 16 10 C21.84157509 17.91526648 23.96986449 27.27104684 23 37 C21.59583684 45.62243942 18.9433378 53.22242861 15 61 C14.34 60.67 13.68 60.34 13 60 C13.25394531 59.46632812 13.50789063 58.93265625 13.76953125 58.3828125 C19.09038708 46.8642557 22.50423008 34.94617938 19.30859375 22.25390625 C16.72337307 16.01259942 12.64408403 9.76272268 7 6 C7 5.34 7 4.68 7 4 C6.01 4 5.02 4 4 4 C4 3.34 4 2.68 4 2 C2.68 1.34 1.36 0.68 0 0 Z " fill="#DD3E38" transform="translate(375,169)"/>
<path d="M0 0 C3.08920271 2.80985992 5.82403279 6.02713691 6.203125 10.27734375 C6.21859375 11.15519531 6.2340625 12.03304687 6.25 12.9375 C6.27578125 13.81277344 6.3015625 14.68804687 6.328125 15.58984375 C5.94290357 18.4193869 5.19305243 19.25132925 3 21 C2.95101563 20.03578125 2.90203125 19.0715625 2.8515625 18.078125 C2.73941406 16.18320313 2.73941406 16.18320313 2.625 14.25 C2.55539062 12.99703125 2.48578125 11.7440625 2.4140625 10.453125 C2.04676696 7.39001879 1.60288714 5.58025734 0 3 C-2.31 3 -4.62 3 -7 3 C-7.52992692 4.45505358 -8.0486789 5.91418127 -8.5625 7.375 C-8.85253906 8.18710938 -9.14257812 8.99921875 -9.44140625 9.8359375 C-10.25973028 12.02767749 -10.25973028 12.02767749 -9 14 C-8.960008 15.99960012 -8.95653201 18.00047242 -9 20 C-11.37214497 18.1752731 -11.95782822 17.26670803 -12.43359375 14.2578125 C-12.4441956 5.75513251 -12.4441956 5.75513251 -10.125 1.8125 C-6.47171003 -1.30354145 -4.62652019 -1.36074123 0 0 Z " fill="#DD3A34" transform="translate(298,84)"/>
<path d="M0 0 C0.99 0.33 1.98 0.66 3 1 C5.01048042 8.79061165 4.70952326 16.7769283 1 24 C-1.62964701 27.44065964 -4.75826346 29.22140209 -9 30 C-13.44671416 30 -15.36139956 29.50659142 -19 27 C-22.84460059 23.15539941 -24.61015648 20.45780927 -25 15 C-23.94570827 16.5814376 -22.89274215 18.16380535 -21.8515625 19.75390625 C-18.81286387 24.49460891 -18.81286387 24.49460891 -14 27 C-10.18599262 27.42641076 -7.1022021 27.55110105 -3.625 25.8125 C0.75647595 20.92546914 0.24487553 15.37031092 0.125 9.1875 C0.11597656 8.30384766 0.10695313 7.42019531 0.09765625 6.50976562 C0.07419637 4.33972641 0.03832865 2.16982753 0 0 Z " fill="#DE352D" transform="translate(360,43)"/>
<path d="M0 0 C3.4375 0.5 3.4375 0.5 5.4375 1.75 C6.4375 3.5 6.4375 3.5 6.125 5.6875 C5.7846875 6.5846875 5.7846875 6.5846875 5.4375 7.5 C4.7775 6.51 4.1175 5.52 3.4375 4.5 C-0.13019552 3.76393501 -0.13019552 3.76393501 -3.5625 3.5 C-4.48265848 6.26047543 -4.75517245 8.13362269 -4.8125 11 C-4.83828125 11.7734375 -4.8640625 12.546875 -4.890625 13.34375 C-4.48147728 16.03243499 -3.70867209 16.87890089 -1.5625 18.5 C0.98008463 19.00014953 0.98008463 19.00014953 3.4375 18.5 C5.73383824 15.05549263 5.97766485 12.56187717 6.4375 8.5 C7.0975 8.83 7.7575 9.16 8.4375 9.5 C8.18719935 13.75511108 7.77540677 16.04945765 5.1875 19.5 C2.4375 21.5 2.4375 21.5 -0.125 21.5625 C-3.64521937 20.0280454 -5.84509695 17.93480611 -7.5625 14.5 C-8.10159564 10.00164461 -8.07899736 6.51233482 -6 2.4375 C-3.5625 0.5 -3.5625 0.5 0 0 Z " fill="#DB3730" transform="translate(282.5625,109.5)"/>
<path d="M0 0 C0.495 0.99 0.495 0.99 1 2 C0.39865234 2.17015625 -0.20269531 2.3403125 -0.82226562 2.515625 C-16.36202829 6.93206549 -31.71463548 11.7717664 -47 17 C-47 17.66 -47 18.32 -47 19 C-49.64 19.66 -52.28 20.32 -55 21 C-55.33 20.34 -55.66 19.68 -56 19 C-55.34 19 -54.68 19 -54 19 C-54 18.34 -54 17.68 -54 17 C-49.20470823 15.37636369 -44.40725351 13.7593259 -39.60791016 12.14770508 C-37.98429168 11.60154984 -36.3612202 11.0537651 -34.73876953 10.50415039 C-23.25331257 6.61506487 -11.71588776 3.12826643 0 0 Z " fill="#18100F" transform="translate(520,61)"/>
<path d="M0 0 C0.33 0.66 0.66 1.32 1 2 C0.154375 2.61875 -0.69125 3.2375 -1.5625 3.875 C-5.36988572 6.99506668 -7.82594501 10.88687463 -10.484375 14.98828125 C-11.23460937 15.98408203 -11.23460937 15.98408203 -12 17 C-12.66 17 -13.32 17 -14 17 C-14.33 18.65 -14.66 20.3 -15 22 C-15.66 22 -16.32 22 -17 22 C-17.4021875 23.2375 -17.4021875 23.2375 -17.8125 24.5 C-19.12524922 28.36915561 -20.55101284 32.17994294 -22 36 C-22.66 36 -23.32 36 -24 36 C-23.73683794 24.42086943 -14.45724714 14.13875303 -7 6 C-4.73950492 3.85564045 -2.4512065 1.9296732 0 0 Z " fill="#DE423B" transform="translate(314,111)"/>
<path d="M0 0 C0.66 0.33 1.32 0.66 2 1 C-1.41975417 6.7987136 -5.9219354 11.58855392 -11 16 C-11.66 16 -12.32 16 -13 16 C-13.33 16.99 -13.66 17.98 -14 19 C-14.99 19 -15.98 19 -17 19 C-17 19.66 -17 20.32 -17 21 C-19 22 -21 23 -23 24 C-24.0725 24.556875 -25.145 25.11375 -26.25 25.6875 C-29 27 -29 27 -31 27 C-31 26.34 -31 25.68 -31 25 C-30.10539062 24.52691406 -29.21078125 24.05382812 -28.2890625 23.56640625 C-16.97289298 17.43648731 -8.20616942 9.97239794 0 0 Z " fill="#DE413B" transform="translate(357,236)"/>
<path d="M0 0 C0.33 0 0.66 0 1 0 C0.95359375 1.18335938 0.9071875 2.36671875 0.859375 3.5859375 C0.61402686 12.61226694 0.6997495 19.83125106 5 28 C5.33 28.99 5.66 29.98 6 31 C6.66 31 7.32 31 8 31 C8.66 32.65 9.32 34.3 10 36 C9.34 36 8.68 36 8 36 C8 35.34 8 34.68 8 34 C7.01 33.67 6.02 33.34 5 33 C-1.59466586 24.97681601 -2.72551952 16.08751174 -2 6 C-1 2.25 -1 2.25 0 0 Z " fill="#E03D38" transform="translate(289,148)"/>
<path d="M0 0 C0.33 0 0.66 0 1 0 C1.74811359 10.09953341 -2.47451451 17.8082485 -8 26 C-8.37511719 26.59167969 -8.75023437 27.18335938 -9.13671875 27.79296875 C-11.7425829 31.87129145 -11.7425829 31.87129145 -14 33 C-13.4385491 28.43183134 -11.59581475 25.40448118 -9.125 21.5625 C-3.79050867 13.69476543 -3.79050867 13.69476543 -1.375 4.6875 C-1 1 -1 1 0 0 Z " fill="#E1453F" transform="translate(375,201)"/>
<path d="M0 0 C4.33176938 2.24990608 6.70253015 4.97406173 9.0625 9.31640625 C9.0625 9.97640625 9.0625 10.63640625 9.0625 11.31640625 C8.4025 11.31640625 7.7425 11.31640625 7.0625 11.31640625 C5.40625 9.6015625 5.40625 9.6015625 3.5625 7.37890625 C0.39510164 3.57400186 -0.655541 2.44250058 -5.75 1.94140625 C-9.28453901 1.97996486 -9.88032646 2.27261375 -12.875 4.56640625 C-14.69784171 6.99686186 -15.60781735 8.34926242 -15.9375 11.31640625 C-16.9275 10.98640625 -17.9175 10.65640625 -18.9375 10.31640625 C-17.56807432 6.32224801 -15.79444902 3.43307791 -12.9375 0.31640625 C-8.58499493 -1.13442877 -4.35636245 -1.53702304 0 0 Z " fill="#DF3D37" transform="translate(352.9375,31.68359375)"/>
<path d="M0 0 C1.21236328 0.41572266 1.21236328 0.41572266 2.44921875 0.83984375 C3.51785156 1.20207031 4.58648437 1.56429688 5.6875 1.9375 C7.27111328 2.47697266 7.27111328 2.47697266 8.88671875 3.02734375 C17.04625762 5.57655978 25.75777254 5.86573075 34.1875 4.375 C35.115625 4.25125 36.04375 4.1275 37 4 C37.66 4.66 38.32 5.32 39 6 C28.77123603 8.72767039 19.69129286 8.67193485 9.4375 6.1875 C8.74648193 6.02233887 8.05546387 5.85717773 7.34350586 5.68701172 C3.81174399 4.75762371 1.2543692 3.9689617 -1 1 C-0.67 0.67 -0.34 0.34 0 0 Z " fill="#DA3832" transform="translate(280,260)"/>
<path d="M0 0 C-4.20496787 1.40165596 -8.44744589 1.3494359 -12.84375 1.51757812 C-16.34427325 1.69194629 -19.49873675 2.04453732 -22.86328125 3.05859375 C-25.89854119 3.96954972 -27.12073032 4.15170787 -30 3 C-29.67 2.34 -29.34 1.68 -29 1 C-8.4415302 -4.7828986 -8.4415302 -4.7828986 0 0 Z " fill="#E14741" transform="translate(399,71)"/>
<path d="M0 0 C0.33 0 0.66 0 1 0 C0.3900874 4.98844309 -0.63474435 9.60155346 -2.0625 14.4375 C-2.42472656 15.67371094 -2.78695313 16.90992188 -3.16015625 18.18359375 C-3.43730469 19.11300781 -3.71445313 20.04242188 -4 21 C-4.66 20.67 -5.32 20.34 -6 20 C-6.66 21.32 -7.32 22.64 -8 24 C-7.50187047 15.53179805 -4.71484816 7.07227224 0 0 Z " fill="#292121" transform="translate(14,165)"/>
<path d="M0 0 C1.10601562 0.41185547 1.10601562 0.41185547 2.234375 0.83203125 C3.41580078 1.26515625 3.41580078 1.26515625 4.62109375 1.70703125 C7.77379742 2.95769056 10.88750846 4.26082492 13.984375 5.64453125 C13.324375 6.30453125 12.664375 6.96453125 11.984375 7.64453125 C11.39269531 7.35578125 10.80101562 7.06703125 10.19140625 6.76953125 C9.40121094 6.39828125 8.61101562 6.02703125 7.796875 5.64453125 C6.63091797 5.08765625 6.63091797 5.08765625 5.44140625 4.51953125 C2.63403372 3.36496261 2.63403372 3.36496261 -2.015625 3.64453125 C-2.345625 6.94453125 -2.675625 10.24453125 -3.015625 13.64453125 C-3.675625 13.64453125 -4.335625 13.64453125 -5.015625 13.64453125 C-5.09644594 11.68686844 -5.15473278 9.72826397 -5.203125 7.76953125 C-5.23792969 6.67898438 -5.27273438 5.5884375 -5.30859375 4.46484375 C-5.21191406 3.53414063 -5.11523438 2.6034375 -5.015625 1.64453125 C-2.015625 -0.35546875 -2.015625 -0.35546875 0 0 Z " fill="#DD3B35" transform="translate(265.015625,253.35546875)"/>
<path d="M0 0 C0.66 0.33 1.32 0.66 2 1 C0.04594482 2.50587739 -1.91281284 4.00478644 -3.875 5.5 C-4.43058594 5.92925781 -4.98617188 6.35851562 -5.55859375 6.80078125 C-9.7734375 10 -9.7734375 10 -12 10 C-12 10.99 -12 11.98 -12 13 C-14.84498177 14.97568178 -17.88256767 16.49901406 -21 18 C-19.5611898 14.612801 -17.77880501 12.6405896 -15 10.25 C-13.948125 9.32960938 -13.948125 9.32960938 -12.875 8.390625 C-11 7 -11 7 -9 7 C-9 6.34 -9 5.68 -9 5 C-6.03812728 2.82796 -3.49314009 1.16438003 0 0 Z " fill="#DF403B" transform="translate(339,90)"/>
<path d="M0 0 C0.33 0.66 0.66 1.32 1 2 C1.99 2.33 2.98 2.66 4 3 C3.05125 3.165 2.1025 3.33 1.125 3.5 C-2.05829833 4.62580649 -2.05829833 4.62580649 -2.87890625 6.84375 C-4.07933568 11.00173178 -4.07933568 11.00173178 -3 15 C-2.960008 16.99960012 -2.95653201 19.00047242 -3 21 C-5.37214497 19.1752731 -5.95782822 18.26670803 -6.43359375 15.2578125 C-6.4441956 6.75513251 -6.4441956 6.75513251 -4.125 2.8125 C-2 1 -2 1 0 0 Z " fill="#E24039" transform="translate(292,83)"/>
<path d="M0 0 C0.33 0 0.66 0 1 0 C1.31764014 8.27040814 1.3765681 15.37093399 -2 23 C-2.35964844 23.84046875 -2.71929687 24.6809375 -3.08984375 25.546875 C-4.03413639 27.71101899 -5.00319557 29.85965344 -6 32 C-6.66 31.67 -7.32 31.34 -8 31 C-7.61908203 30.19949219 -7.61908203 30.19949219 -7.23046875 29.3828125 C-2.72389072 19.6269994 -0.53596401 10.75624329 0 0 Z " fill="#D83832" transform="translate(396,198)"/>
<path d="M0 0 C-2.68841859 2.25245881 -4.64641875 3.88213958 -8 5 C-9.13545562 7.29534258 -9.13545562 7.29534258 -10 10 C-10.66666667 11.66666667 -11.33333333 13.33333333 -12 15 C-12.66 15 -13.32 15 -14 15 C-13.62948535 8.82475589 -12.18618232 6.28585333 -8 2 C-4.77208445 -0.1519437 -3.71599191 -0.20086443 0 0 Z " fill="#E14941" transform="translate(391,0)"/>
<path d="M0 0 C0.33 0 0.66 0 1 0 C1.05422947 1.4370809 1.09289723 2.87475462 1.125 4.3125 C1.14820313 5.11300781 1.17140625 5.91351563 1.1953125 6.73828125 C1 9 1 9 -1 12 C-1.33 11.34 -1.66 10.68 -2 10 C-2.66 12.97 -3.32 15.94 -4 19 C-4.66 19 -5.32 19 -6 19 C-5.68991116 17.39536551 -5.37683713 15.79130769 -5.0625 14.1875 C-4.88847656 13.29417969 -4.71445313 12.40085938 -4.53515625 11.48046875 C-4 9 -4 9 -3 6 C-2.34 6 -1.68 6 -1 6 C-0.67 4.02 -0.34 2.04 0 0 Z " fill="#0E0908" transform="translate(8,183)"/>
<path d="M0 0 C-0.61875 0.28875 -1.2375 0.5775 -1.875 0.875 C-4.13325765 1.93720042 -4.13325765 1.93720042 -6 4 C-8 4.66666667 -10 5.33333333 -12 6 C-13.67334039 6.98879205 -15.34151823 7.98648336 -17 9 C-17.66 9 -18.32 9 -19 9 C-19 8.34 -19 7.68 -19 7 C-16.96630002 5.81719526 -14.92487318 4.65416773 -12.875 3.5 C-11.73804688 2.8503125 -10.60109375 2.200625 -9.4296875 1.53125 C-5.92744072 -0.03239549 -3.77825437 -0.32155356 0 0 Z " fill="#DC3D38" transform="translate(368,75)"/>
<path d="M0 0 C1.41823316 0.08006155 2.83603027 0.17654137 4.25 0.3125 C4.25 0.6425 4.25 0.9725 4.25 1.3125 C2.991875 1.56 1.73375 1.8075 0.4375 2.0625 C-2.39178712 2.77232115 -3.55158499 3.12048547 -5.6875 5.1875 C-6.71424109 7.24098218 -7.34711292 9.05633235 -7.75 11.3125 C-8.74 10.9825 -9.73 10.6525 -10.75 10.3125 C-8.6793872 4.27321268 -6.85696479 0 0 0 Z " fill="#DE4541" transform="translate(344.75,31.6875)"/>
<path d="M0 0 C0.33 0 0.66 0 1 0 C1.45028522 6.30399313 0.61202629 10.71378634 -3 16 C-3.66 16.33 -4.32 16.66 -5 17 C-4.71125 16.21625 -4.4225 15.4325 -4.125 14.625 C-2.93722932 10.79773892 -2.17712633 7.01237617 -1.46484375 3.07421875 C-1 1 -1 1 0 0 Z " fill="#DA3E38" transform="translate(375,201)"/>
<path d="M0 0 C0.66 0.33 1.32 0.66 2 1 C0.54744565 3.31631609 -0.91165412 5.628017 -2.375 7.9375 C-2.7875 8.59685547 -3.2 9.25621094 -3.625 9.93554688 C-6.7734375 14.88671875 -6.7734375 14.88671875 -9 16 C-8.34206835 14.32986582 -7.67276716 12.6642135 -7 11 C-6.54625 9.824375 -6.0925 8.64875 -5.625 7.4375 C-4.08201604 4.17349547 -2.70422589 2.33122922 0 0 Z " fill="#E33A30" transform="translate(387,231)"/>
<path d="M0 0 C-1.98 0.66 -3.96 1.32 -6 2 C-6 2.66 -6 3.32 -6 4 C-8.64 4.66 -11.28 5.32 -14 6 C-14.33 5.34 -14.66 4.68 -15 4 C-14.34 4 -13.68 4 -13 4 C-13 3.34 -13 2.68 -13 2 C-11.5882217 1.46605821 -10.17029756 0.94834896 -8.75 0.4375 C-7.96109375 0.14746094 -7.1721875 -0.14257812 -6.359375 -0.44140625 C-3.80896548 -1.04522837 -2.44677771 -0.8473932 0 0 Z " fill="#402828" transform="translate(479,76)"/>
<path d="M0 0 C0.33 0 0.66 0 1 0 C0 7.42857143 0 7.42857143 -1 11 C-1.99 11 -2.98 11 -4 11 C-3.49172849 6.62886504 -2.54826592 3.61004338 0 0 Z " fill="#3D2F2E" transform="translate(14,165)"/>
<path d="M0 0 C7.75 0.875 7.75 0.875 10 2 C10 2.66 10 3.32 10 4 C5.78121808 4.19622241 2.82989106 3.80230168 -1 2 C-0.67 1.34 -0.34 0.68 0 0 Z " fill="#DF423C" transform="translate(364,165)"/>
<path d="M0 0 C0.66 0 1.32 0 2 0 C2.8353125 0.928125 2.8353125 0.928125 3.6875 1.875 C6.58753997 4.53990159 9.20771415 5.12485711 13 6 C13 6.66 13 7.32 13 8 C10.09703073 8.34559158 7.87462509 8.51874316 5.30078125 6.9921875 C2.59652179 4.80520769 1.11110234 3.33330702 0 0 Z " fill="#DD3A35" transform="translate(311,159)"/>
<path d="M0 0 C0.33 0.66 0.66 1.32 1 2 C1.99 2.33 2.98 2.66 4 3 C3.071875 3.268125 2.14375 3.53625 1.1875 3.8125 C-1.76240366 4.91148371 -3.05615186 5.62418561 -5 8 C-4.64950425 4.75791433 -4.43778819 3.38472296 -1.9375 1.1875 C-1.298125 0.795625 -0.65875 0.40375 0 0 Z " fill="#DC4640" transform="translate(292,83)"/>
<path d="M0 0 C1.5 1.375 1.5 1.375 3 3 C3 3.66 3 4.32 3 5 C3.66 5 4.32 5 5 5 C5.33 6.65 5.66 8.3 6 10 C2.46413986 6.82679218 0.41421969 4.83256305 0 0 Z " fill="#DE3E38" transform="translate(262,269)"/>
<path d="M0 0 C-1.98 0.99 -1.98 0.99 -4 2 C-4 2.66 -4 3.32 -4 4 C-5.98 4 -7.96 4 -10 4 C-7.16124653 -0.25813021 -4.8137938 -0.13010254 0 0 Z " fill="#DF3F38" transform="translate(325,263)"/>
</svg>
